/* XPM */
static char *marbel[] = {
/* columns rows colors chars-per-pixel */
"64 64 206 2 ",
"   c #2E2E2E",
".  c #2E2F2F",
"X  c #2F2F2F",
"o  c #2F302F",
"O  c #303030",
"+  c #303130",
"@  c #303131",
"#  c #313131",
"$  c #313231",
"%  c #313232",
"&  c #323232",
"*  c #323332",
"=  c #323333",
"-  c #333333",
";  c #323433",
":  c #333433",
">  c #333434",
",  c #343434",
"<  c #343534",
"1  c #343535",
"2  c #353535",
"3  c #353635",
"4  c #353636",
"5  c #353736",
"6  c #363636",
"7  c #363736",
"8  c #363737",
"9  c #373737",
"0  c #363837",
"q  c #373837",
"w  c #373838",
"e  c #373938",
"r  c #383938",
"t  c #383939",
"y  c #383A38",
"u  c #383A39",
"i  c #393A39",
"p  c #393A3A",
"a  c #393B3A",
"s  c #3A3B3A",
"d  c #3A3B3B",
"f  c #3A3C3A",
"g  c #3A3C3B",
"h  c #3B3C3B",
"j  c #3B3D3B",
"k  c #3B3C3C",
"l  c #3B3D3C",
"z  c #3C3D3C",
"x  c #3C3D3D",
"c  c #3C3E3C",
"v  c #3C3E3D",
"b  c #3D3E3D",
"n  c #3C3F3D",
"m  c #3D3F3D",
"M  c #3D3E3E",
"N  c #3D3F3E",
"B  c #3E3F3E",
"V  c #3E3F3F",
"C  c #3D403E",
"Z  c #3E403E",
"A  c #3E403F",
"S  c #3F403F",
"D  c #3E413F",
"F  c #3F413F",
"G  c #3F4140",
"H  c #3F4240",
"J  c #3F4241",
"K  c #404140",
"L  c #404240",
"P  c #404241",
"I  c #414241",
"U  c #404341",
"Y  c #414341",
"T  c #404342",
"R  c #414342",
"E  c #424342",
"W  c #414442",
"Q  c #414443",
"!  c #414543",
"~  c #424442",
"^  c #424443",
"/  c #434443",
"(  c #424543",
")  c #434543",
"_  c #424544",
"`  c #434544",
"'  c #424644",
"]  c #434644",
"[  c #434645",
"{  c #434745",
"}  c #444644",
"|  c #444645",
" . c #444745",
".. c #454745",
"X. c #444746",
"o. c #454746",
"O. c #454846",
"+. c #454847",
"@. c #454947",
"#. c #464846",
"$. c #464847",
"%. c #464947",
"&. c #474947",
"*. c #464948",
"=. c #474948",
"-. c #464A48",
";. c #474A48",
":. c #474B48",
">. c #474A49",
",. c #474B49",
"<. c #484A49",
"1. c #484B49",
"2. c #484B4A",
"3. c #494B4A",
"4. c #484C49",
"5. c #484C4A",
"6. c #494C4A",
"7. c #494C4B",
"8. c #494D4B",
"9. c #4A4C4B",
"0. c #4A4D4B",
"q. c #494E4B",
"w. c #4A4E4B",
"e. c #4A4D4C",
"r. c #4B4D4C",
"t. c #4A4E4C",
"y. c #4B4E4C",
"u. c #4A4F4C",
"i. c #4B4E4D",
"p. c #4B4F4D",
"a. c #4C4E4D",
"s. c #4C4F4D",
"d. c #4C4F4E",
"f. c #4B504D",
"g. c #4B514E",
"h. c #4C504D",
"j. c #4C504E",
"k. c #4D504E",
"l. c #4C514E",
"z. c #4D514E",
"x. c #4D504F",
"c. c #4D514F",
"v. c #4E504F",
"b. c #4E514F",
"n. c #4D524F",
"m. c #4E524F",
"M. c #4D5250",
"N. c #4E5250",
"B. c #4F5250",
"V. c #4E5350",
"C. c #4F5350",
"Z. c #4F5351",
"A. c #4E5450",
"S. c #4E5451",
"D. c #4F5451",
"F. c #4F5552",
"G. c #505351",
"H. c #505451",
"J. c #505452",
"K. c #515452",
"L. c #505552",
"P. c #515552",
"I. c #515553",
"U. c #525553",
"Y. c #505653",
"T. c #515653",
"R. c #525653",
"E. c #515754",
"W. c #525654",
"Q. c #535654",
"!. c #525754",
"~. c #535754",
"^. c #535755",
"/. c #535855",
"(. c #535955",
"). c #535956",
"_. c #545855",
"`. c #545856",
"'. c #545956",
"]. c #545957",
"[. c #555957",
"{. c #545A57",
"}. c #555A57",
"|. c #555B58",
" X c #565B58",
".X c #575B59",
"XX c #565C59",
"oX c #575C59",
"OX c #585C5A",
"+X c #585D5A",
"@X c #585D5B",
"#X c #585E5A",
"$X c #585E5B",
"%X c #585F5B",
"&X c #595E5C",
"*X c #595F5C",
"=X c #5A605D",
"-X c #5B615E",
";X c #5C625E",
":X c #5C625F",
">X c #5E6561",
",X c #5F6562",
"<X c #616764",
"1X c #636B67",
"2X c #666C69",
"3X c #6A746E",
/* pixels */
"7 7 p 7 T n n n  .a.n p 3.;Xn p h.&.h S g.: q 7 p p 7 n  . .k / G.=.S E / S < d S G t h 7 7 n p p l <.3.( } S n : , n E  .} d p ",
"7 7 q % p n w &.n T p < p n 7 7 (  .n ( h.7 q 7 q h S n =.n S =.3./ d S n k : < t 3.0.0.<.( &. .0.3.<.n 0.&.h p p h.<.T G n G G ",
"X % 7 p h S G G d n T w n T p p l p 7 ( g.T 7 % 7 T n ( 3.d / n d w k w + w < : h h.[.&.n q  . .G ( ( } ;XP.n l p q T T d t 7 : ",
"% 7 l S n n n G.&X3.S T n 7 % < q ( D.7 h.' X 7 T 7 p n 3.T  .k S T E w d S k S h q S % , 7 S h t p  .a.[.S , n T ( n p w w 7 : ",
"l h  .p p q n 3./.0.e. .d d : 7 d @X3X@X1Xd : 3.n % w 7 T a./ k d w d S T S S k q S S S &.&.( S  .l S l ( n 7 G S d d 3. .n p w ",
"7 p S e 7 S  .T T &.g.P. .p k w T <.0.&Xr.S #. .n p w k #.a.a.a.k + w d  .S S < h ;.3.&.h.J h S n n h.&.n , , , : : : S S n l w ",
"7 n 7 p l e.G 7 % p 7 n p p k k  .w 7 3. .a.T S p E 3.3.a.3.a.3.a.E v.B.M 6 w d &.( h l p : q &.p } G p t : t 7 w d w E n T G t ",
"l h 7 p n T p 7 % 7 p 7 7 7 + 7 <.: n v.3.S d d T G.3.d S k k k S E / S w w S T h h 7 q q : S h.T &.p d 7 t t p w p : p  .l n d ",
"7 k k w d n n  .p % > 7 % 7 l e.} 7 l P.S d l } S #.S X < 6 i S =.S k S p d n d p n S d h q q h [.S 7 d #.E E G S w d d i w d d ",
"S w 7 k d w 7 n &.S 7 % e ' e.' d w n S d G  .d : S S w w M w d T d k E n l w w d w p d q q q ( @X} G w G T } S T T E S S w d w ",
"w w < k 7 n 3.a.( n S S ;. .G (  .t t  .<.} p d d S i 6 w d d M w d S S w d w d p w w d : : : h r.S E d l d d d d  .3.E d w d w ",
"k n d w w n 3.T p : % h ' l n g.3.w w E E w G d T : : : : w M d S S k w 7 7 7 p p w + w q : : S ^.t X w n t : : w S #. .S E E i ",
"n n S k T a.3.S k + < p p T p n T E  .d S n w S S : : : 6 w M d S M M d w : p w 7 w % t p t q 0.0.l , 7 7 % : : d E T G d r.G.T ",
"T < 9.3.3.v.3. .k < k T  .T d  .3.r.w X : #.<.w d E w w w d d S S k k i w < n  .n d p 7 t 7 S h ( h G l : : t d w w S w w E a.} ",
"a./ T / 9.v./ n  .S / 3.3.d S k d #.G d n 3.S w S S w : S d i S k S S E #.3.U.v.S  . .G q l &.t S n t : : 7 : d w n G t d 3.3.[.",
"n p 7 p S T T S 3.a.T 3.T d p 7 t G  .E E  .<.w d S w d d k E S S S M S 3.a.S w  .[.<.( G n S 7 p l h 7 : l w : S E n T <.E  .w ",
"w 7 w n n < w T =.k w I k / S S k d i S k / 9.T #.S E / S w S d d T G t t p p ( ( &.7 % ( &.( , p q p t % n 0.P.0.( ( G h 4.&.7 ",
"w p p 7 < : w G.B.i 9.=./ E 9.=.S w + i k k S S I E / d 6 6 w M S T n t , % l T S &.h q h >XT G n , h } ( f.0.0.g.&.( q q S &.S ",
"T S p 7 < w a.<X/ < / #.3.v.3.S S E w k S S E d E I i w i w M E r.G w , , p h n &.S p S S m.} &.&.&.(  .: S &.( S l : h t 7 n ' ",
" .S w < < 3.OXT M i 6 k / Q.=.w =.3.k k 9.[.a./ d i w i S w d d d d : % 7 , p t h.( S h S &.l &.0.( &.&.f.4.h q q h S h n T ( h ",
"w S w < < T =.6 k k 6 w < T a.d / / i S 3.^.=.S w d d i d i k w n S S w q t q , T S t 7 v.&., w t ( ( /.h.q q q 7 % n ' [.S 7 % ",
"n w k k T 3./ E  .T 6 w k k 3.#.9.T S w / =.k S < d k w w S E S l #.S l , p n t n , t q n G 7 t 7 t h f.q + q h p 7 p 0.e.( % o ",
"d k #.S / =.9.E / S w d < w E d / w k w S n w < < w d w 6 S #.S S d S E , 7 p 7 7 q t p } a.d : 7 h h.0.o + S h 7 7 h S : S q t ",
" ./ T w k k S w w w w 6 6 w S w 6 < w d / w w w S k w w w d S k w w d T t n &.} q , + : w 7 n } ( &.( ( : : h h : , p q : h n h ",
"/ E d w k S k E #./ / S d S / S k i w k S d p p w w d / 3.3.T k w 2 w d w d E 3.n 6 + X i S #.r.d d d w d d d S T n n p T d 3.T ",
"k  .k w k E S T ^.#.S S / 3.9.S k T  .T =.< : : 7 p n d S  .T k l t l , : d : w n S w i S E E w d w d w d d w d T &.} n l n p p ",
"9.^.=.S #.w d k a.G.3.w T S E E w < w k S =.=.i w w w k T n S w l d S w w l t d #.3.S n E #.d : w d w w : w w : S ( h  .G d 7 S ",
"9./ n S w w S k T / 9.E k S #.=.k w w n S n =./ S w p T E S  .S w t S t S E S G S #.#.v.3.l S #.S w d 6 d w S S G p l T n T  .<.",
"=./ d k w S w k d k S 3.S k k k < w S S T k k / OX3.T S w n d n  .E E d n S t p d S 3.3.i w n r.S w w d S  . .k d d w d w w n T ",
"S k k d 6 d w d k #./ S S k w w k k S k k k w d / T 3.T 3. .< w E n t t d S , t S 3.3.E E w w d E d d : E #.S S d E w i d S  .S ",
"w 6 6 < : < w E k d w d S d i d S k S S w k / S d 7  .n  .v.d w , : # d n #.G T w S E E S E } T  .n d w  .d d d w d w w d w S d ",
"w w < w + + w E k : w d n 6 S =.k d w k k k / k d S 3.T k k E 9.S w : w d E G l : d d d d w E E S l d d S S d w w w 6 i i w d d ",
"l d t w w w #.3.E S w w S d S E d p p d d S T n : w  .a.T 7 7 G U.<.T t d S n p w w < : d w k / S w d w E T d w w w < < w E d < ",
"7 t l r.v.v.v.#.S E w : t d d d l d p d p S d p : w S T n p T d d G [.} p <.p w n : : w : < p S S k T E 3.=.E d w E S S i k S k ",
"t n #.r.<.G E d S E x < x d d d p n d n S l p 7 7 p p 7 l S  .n n d l } w t , : w : + w w : X w k S S k k S k p S G. .S i S #.S ",
"G h.;Xv.} } d d S w d d E E S S d w w d } d p : 7 7 : p a. .G.T t d G l 7 d d : : < w : d p : w S E #./ S k p w T E E S d w  .S ",
"0.h.0.<.E #.d x d w w w d S #.E n S n E  .p n d w : n <.OX&.T G 7 : d T n d d t < d p p n n d w S #.T / S k k S E i w 6 k k i 6 ",
"( t G G d S S S i < w S w w M 3. .3.U.3.n : n n T T } U.3.} t 7 n U.^.#.S T G v.S n w w T r.3.3.=.k w a.#.k /  .k S i 6 < w S % ",
"S t p l #.E d d d w i d w M i w S [.3.r.<.t p ,  .[.a.OX3.} w , r.2XOXG n n p T 3.T S  .E w w T S < S #.a./ S E S w w i < w M k ",
"l , t l E #.w w : d S x d d w X : U.3.a.h.T n  .3.T T <.7 w % + n ^.^. .n l w n d 3.3.#.E d d 3.k < E a./ n w d =.S M d w w 6 k ",
"G , t , p G l w : : d d E E E S 7 3.v.T <.} G n  .n 7 S G p t : n &X<.3.p w 7 % 7 3.[.G. . .d p q p h.S n h q % k  .S k p n w w ",
"l G , : t , l , w w i i S E S S 0.<.G l d a.0.G S w : w 3.n d G a.OXa.n n n < : < 3.0.} d 7 7 S n  .[.( ( S q : k OXS p d #.d w ",
", l , + t + , l w w M i d d S E r. .l p t 0.&.S t d w : 3.S <.<X&XOX3.l d  .S p d t d n n :  .^.[.0.&.( ( 0.h.&.3./ k S k a.T d ",
"t t p 7 , , t p d w d S S E E i l U.} t t ( T 7 U.OXd : p l } G.3.d S S T n E T : % w % 7 n  . .( h h T ;.0.;.{ 3. .d w S 3. .k ",
", , S S n t t l T T #.E E p p w 3.r.T n 7 l 0.0.^.a.S d t G r.l 7 : : 7 w w G <. .7 7 n E a. . .0.3.( T h ( ( S D.P.p p T  .E S ",
"l } G G G t d l S #.v.=.w w E d  .n l T l t ( ^.3.T E S l n n , w T S w : d n G r.n G E p T h.a.&.h q n S h 7 h &.0.S S #.3.E w ",
"r.U.<.d w t t G  .S G E w d S S t p d l  .} n t d G S G } <.d , 7 T d w 7 S p G  .T  .G G p 7 w n n n p p : 7 q S >  .B.@XG.T S ",
"0.d l 2 w t t l <. .n w p S p p w T G n n p n p w n d l l T G l S 3.E n E 3.^.r. .n 7 l } l d p h n , p S p h ( G 7 w n 3.T a.[.",
"S , t l 2 , 2 t G l l G G G , G <.t w w n S d <.w d l S t w S G r.2.&.h.G l l E  .l t t t , t , p 7 % p S q q { 2 y S q S ( C q ",
", , t G G l G G } t , , , ,  .l w t p , t l S E n p t w : w n G &.l t t w d t G h.} G p t , , , t 7 % % : h g.F : q q h ( &.S h ",
"X t , t G G G } r.} B t + ; } y d S d , % w T E  .G S , , l <.3.G t w , X : t t } } l d n t , w t h 7 t q { { h q q : h q h q , ",
"G } d l G l x } } G E G l } G I G #.w w , p S l S <.S E  .} v.U.S l d w X # , , t l G } n l , , p h p h h S S q ( h q S : h &.{ ",
"<.r.S l l E <.G } l 9 B  .I l  . .r.n n p h t p l d t d T 3.E n t t , , : t S l w l S l l l t p l G n 7 7 0.P.q  .t : % % 7 S ( ",
"l p l l G r.<.G B t , d  .} } l l G T 3.0.h.S n G T 3.l d l E 3.G , + , w S d l l S d w 7 p l t h T p t 7 0.F h t 7 , % t q t ( ",
"d , G l S &.G } } B } <.<.l y t d } T 3.0.h.S l G S #.E G S w S G l X % d E G d l E n : , 7 t l l % 7 t n ( : q + , p q p q q ( ",
"w , t G G <.G } G  .E C l C G y p n l p l 0.&.l } S } S d S l <.0.&.t , w d w t E d l w % % , S p 7 7 G &.q 7 , + , t q h ( l l ",
", t h h G l h l l C G t 2 l G l h q h q q h 0.( E l E S S l d l S l G l , t l p n T } p % , , p t n &.P.a.T &.p t G G l ( } t p ",
"l l ( l l , : , D.I C } 2 , t d q h q q q : l &.<.t l S G } G d n l n <.l } r.l n ( v.&.l n G n q 0.( ( ( ( &.p ( n % q S t T n ",
"}  .S l G l , , r.G l I 9 , , l h q q h y F h &.#.G l t p  .3.3.} G <.n d T a.l n n h n p t l t q 0.S p t % % h r.p + % n , l p ",
"} l S t S I l I d d  . .l G t y q h y f.&.D.g.( : : t } l d l <.G G l , , : p n 7 q 7 n p : X % G P.l l G p 7 h t % , ( v.t w p ",
"h t ( h t t 0. ., , C I l C l d q h q F ( &.m.G X w G h.} G G G p } : : w , , T  .&.q 7 0.S % , q ' S &.S h 7 S : + h 4.<.7 h n ",
"t l G t 2 ( D.h I G t y , 2 t , q h : : h G <.&.l } G S S G } G U.<.d w , : w d 3.h.T , p 7 t ( S ( S &.G q 7 G q + n q t p } n ",
"G t l l l P.G , S } } f. .y l 9 : : o q 0.( } <.0.&.l p l <.r.<.3.U.S l , : w t ' ' ( h p : 7 S h h ( 0.3.l n S 7 , <.0.0.h.<.S ",
"q + G l P.(.t , G f.} f.0.I 2.D.S S p q &.G , 7 l <.l , t } S n v.r.w t d l d S ;.g.( &.S : 7 q S t S &.h.p S ( 7 X l G &.( p , "
};
