/* XPM */
static char *wall[] = {
/* columns rows colors chars-per-pixel */
"64 64 30 1 ",
"  c #292927",
". c #2D2D2D",
"X c #352E25",
"o c #302F2E",
"O c #31302F",
"+ c #3A352E",
"@ c #343433",
"# c #393734",
"$ c #3B3936",
"% c #3C3B3A",
"& c #40382C",
"* c #423D36",
"= c #483F35",
"- c #423E3A",
"; c #3F403E",
": c #474037",
"> c #494137",
", c #45413C",
"< c #4B443C",
"1 c #4F483F",
"2 c #50473D",
"3 c #52493E",
"4 c #444342",
"5 c #494642",
"6 c #4F4942",
"7 c #544B41",
"8 c #594F43",
"9 c #5B5145",
"0 c #61564A",
"q c #63584B",
/* pixels */
"37#@@@@#6%@#%@%##%#@%-@O#787@..  .O-6-*-6=6*-=#@@%%O@@%%%%@.OOO#",
"3,##@##%5%@@%##@@%@@O%**688*.......#%@###;5777*##@@O%@@@@@#OO@O#",
",%#@##@$$##%,%%@@@@O@#<289*O.@O....@@@@%%;57887%@@O@@@@%%@%#@.OO",
"5%;@O@$#@$%;,4%@OO.OO#677-OO@.OO..@@@@@@#;56288-@OO@OO@@#%%#O..O",
",%%$@#$$#%%%%1-$%@+*<677<@@O@@O@OO@@###@#%45=26,%@@O..O#$%%-...O",
"6,%%%%%@@$%$%,$%--=62%@%-@OO@@@@@%@@#%%%@;4488-%#%%@o..#%$##@O#4",
"$*%-%--#@@##$@#@@#$6<OO@-*..OO@@@;%@%%%%#%-672%@@%#%#O#%$@OO==--",
"..oO%,-$%%*#@$@@OO#2%O@@--. ..O@-;%%%%%%%%%-=*%@@%%O@%--;@@#6#..",
".  .O#%,86#@%%@@..%<@@@%%=*+oO@-64-;%@%%%;4--##@O@@%@O@;4,-<,o.O",
"...@@@#%1$@%%%%@..@-%%%#@@2*@@%%=-,;%@#$%;7--;%#$@%;%%@$-5<7*.oO",
"..O@%@@%-#@@@%%@@@%-%%#@@O6#. ..@#%-4-%##%76-%%#$%;;;@@@$%,7#.OO",
".@O@@@@@*##O@%@@##<4;;%%#O7=....OOOO-,;44-$#5%%#%%%;%@@.O#77#.OO",
"@%@@@@@.#%@#@@O@@$7444-##.-6..O@@O@@;;,8-#@@-4#@@%%%$@@..*99%.oO",
"@@%@OOOO*3%%;%$$#=5-4%#OOO==...@@O@%;%-=#@%OO%*O@@%%@@@..<73..oo",
"@O@@OO@@*,%;%%##@#--%%@@@@6*O.OOO@O%@%%-@@#$%#%O@%@@@OO.#77-. ..",
"O@.O.OoO*>%;;%%#@#*--%#*#23#..O#@@@@O@4%##@%%@@-%@%@@O@-<<o.o   ",
"@@.@@@.O66%;4-##$####@O@.@2*ooO@*@OOO#,#$@@@@$#-4-@$$$<9<O   ...",
"@@@.O@OO77#%;;%-%@O@##O@..+@OoOOO@O..@@O@@@@%#%,-*461684OoOO..o@",
"OO@@@OOO=5%-4;-#o.o#%@O@..X+...OOO. .@.O..O@@%%*OO%-,1-OOO#@@@@@",
"@%@O...%2=4,5;$O.XoOOO@OO.O+OO@@@OoO<@.o...O@%-$@O%#.*@.@@@$%%$@",
"oO#+%#*377254;%@O@@@OOOO.o@&---44,5285@....@$4;%@@%%@#O@@@@%%%@@",
"o.=26123777-%;%#@@@@O.OOoX*<-%;;4;--67<@.@@%444%%%%@%,%@.@$%;$@@",
"$#222<><27774%@OO@@@OO@#@*24-%%;%%@@,774**;%;;;;%%%%,3,@@@@@%@;%",
"@@@O*+o#274---%O.@@@%%@;%67;%#@@$$%*#2<-%<4%;;@@.@%%-*,*@..o@$-%",
"@@@o@. O-6%O@@%;@O@%%##%#---%@@@@%%@@;$$%$;$@%#@O#44%O@-@..O#*@@",
"@$@o@..@%4%@O@@%%%@@%##%##-;%%@@%@%@@@O@%%@$$@@**--@ooo$44#*@@@#",
"@@@@#..O@#*O@%%#@###O@@#O#-;%%;%%%@@$@@@$@@.*%*4<*.@O..@13@Oo@@@",
"O@@$#OOO@O#@O@OO%;%#%###@-%#%%;%%%@@%@$@$%@..-<7-@@.$%%@-#oO.OO@",
"@#@*@@@#@@O@@@..@%%%;44#-6O##%%%%%@@%%%*$@@..@67<*OO@;%@&O ..O.@",
".@$#@@#@@O.##O.O@@%;4554**O@@#%%@@@#,%$@@@@..O*@@%-$$%@@##......",
"@#-@oO@@@O.O4*##;#%;4554+#@@##%@@@@,7%@$@@@@.@@@$@%-%$#$-=@o@@@O",
"@@$o..O@@@@O<%-%####%-4=X@####@@@@@68%@@OO@O@@@@$@O@*====-#@@@@@",
"@@#O  .@@@O#,O@@@@@@o@@==*-#$#*-@@-2-@*@@$@*#@@%$$@@@**%,*O@@@%%",
"%#*#. .OOOO-,@@@@@@@.O$-+.#*XO,4;-2%O#@*$$%%,#@#$@@@@@OO@*O#$@@%",
"%%#&%OoOOOO-#@@@%$%@OO;-OOO@o o-752@@%%%@@@%%@@%%%;$@.@@@*##@@@@",
"@##@*4$$@@-;@O@@$$@Oo@$@$@@O&...O@**@%;;%@%@*%*%,%%@..@@@-%%@.@@",
"#@%O-<,--,<*@O@@@%@@@#O@@@@o*. OO@O,%%;%%%@%O-<*@@#@OOOO@*-$@O@o",
"%@%@@-%#@O@*@O@@@$$%$.@Ooo..*@OO@@@%6%%#%%@@@*-O@@@@@OO..#*O$#@O",
"@@@@@;;%@O.#-#@$@*%4o.@O... @#@@@@@#24%%%$*@@%5@@@@@O.....&<2@oo",
"....$%@@$@@$*#@@@Oo*..@O....o*@#@O@O*,%$$#@@@-%;@.OO...Oo.+*<%OO",
"@..@@@@@%%%%#..O@@O*OOOO@o  o-@@@@@$@O%#$$@%;#@$%$@o.oOO@*@@@$;%",
"-;**@@@$@@$%$.@@%@O,,#@@Ooo..-@@%%%%$@#%$$;4;@%%;$$@O@.O#*%$@$@$",
"%%4<$@%%%$@##@@$%@@,<-$$#+o..#Oo%;;;%$$%-%4,%%%;;%$%;<*=*%$@@$@@",
"%%*4%%@%@$##o@@@;@@%OO@$@#&=*&*o@$%%;;%$*25%%@%%4%$@@<7-O@@@@@@$",
"%;%;%$%@#@#+&,$O$@O#@@@@oO*=#@#@@@$%%;%#-*$$@@@%;;@@O@6*O@$#@@@%",
"%%%-%@@@@#+#%%1,#@#*%%%@#*oo.oO#%%$%%%*%%*$$@%%%%%%@OO-*OOOO@.@@",
"@$$%,**OOO$@%;%$##*<--;13oooO@@@%#$#@$%,-%%%;;;$%%$@OO#<<-#O@@@.",
"O@O#4,@.o@*;44;%*%%=<-**-Oo@@O@@@,%%%,5,;%%%;;%%%%@@O.*<#OOOO@%@",
"@$$,<@o..O%;44;%%%%<<$#o...O#OoOO<2<<<71--#%%%%%%%%$@#5-O@@OO.O@",
"%@@#%@@OO@%%;4;%%$%5;%#@o.oO@###-<*Oo*<$O##%%%%;%%%%-;3#@@O@%%%%",
"@@@##@@@@@@%%$%%%#-1-#@@ooO@oo*<6$...O$O.oO@@@@%%@$;;<<@@$%%%%%%",
"$@$*@@...@@%%*%;-1<-**O@Ooo@##O--O.OO.-@.oOoo@@@$@%;-37-@@%;;;%@",
"@@O##o...@@%%*-*#;-$@$-#@@@#@%%*#OO@OO@@..o...%%%%-,774<-*%444%%",
"@.o#*O..@$###%@@$,-#@@$%;@O@#@##@O.O..@@o..oO%@%%@-33-@@O-544;%%",
"@OO*-OOO.@**@%@%%,@@@@@%48#O@@##$@@@O@.$$@@O@%$$$@%6-O@%#O@%%%$@",
"..@<3<%*#,4%@@@%%;%@%%%$<9<*#o.O@@@%@O@%%%@@O%%$%@@%*O$@@O.@O%@.",
"@O@78224;%;%*@@@-<@@@%%--#@@*+.o.@@@...$#@@@@@@@@##-=OO%@@ooO@@@",
"Oo*772<$%#@@o#**=3$@@-#@o.o@#O...@.@.@.$@O@@@@%@%##,7-@OOo@@OOOO",
"O@*<**,*@O@@.O*2897<-*O.OO@%*@@o..@@...@#O@@@%%%@@-1687-#@OOOoOO",
"%<<#OO@**@@@@@*=782&O@oO@@#%%$@O..@....@%@@@@@@@%;7=#*=-#O###O@@",
"q9*O@@;;,*@o@*-*-<6....@@@$@*@#@O. ...@$-#@@@@#@%--#.O--@@@Oo.#7",
"q7*@@$;%,<**,*@@@%4-...O@%%@*=,4%O ..@@$#%%@O#@---@O.O@;$@@#..@6",
"96%@%%##-=<<@@@@@%#,..OO@@@-33778<@...@@-%%@@@--%@@@O@@%$@OO...5",
"88;@@@@O,*#4@@@$%@@%$@@OO$6972<*,6<4$.@@,<%@@%,%@@$$$%@%%@Oo...-"
};
