/* XPM */
static char *brick_r[] = {
/* columns rows colors chars-per-pixel */
"64 64 180 2 ",
"   c #363636",
".  c #383838",
"X  c #3B3B3B",
"o  c #3C3C3C",
"O  c #3D3D3D",
"+  c #3F3F3F",
"@  c #404040",
"#  c #444444",
"$  c #474747",
"%  c #484848",
"&  c #494949",
"*  c #4A4A4A",
"=  c #4B4B4B",
"-  c #4C4C4C",
";  c #4D4D4D",
":  c #4E4E4E",
">  c #4F4F4F",
",  c #505050",
"<  c #515151",
"1  c #525252",
"2  c #535353",
"3  c #545454",
"4  c #555555",
"5  c #565656",
"6  c #575757",
"7  c #585858",
"8  c #595959",
"9  c #5A5A5A",
"0  c #5B5B5B",
"q  c #5C5C5C",
"w  c #5D5D5D",
"e  c #5E5E5E",
"r  c #5F5F5F",
"t  c #606060",
"y  c #616161",
"u  c #626262",
"i  c #636363",
"p  c #646464",
"a  c #656565",
"s  c #666666",
"d  c #676767",
"f  c #686868",
"g  c #696969",
"h  c #6A6A6A",
"j  c #6B6B6B",
"k  c #6C6C6C",
"l  c #6D6D6D",
"z  c #6E6E6E",
"x  c #6F6F6F",
"c  c #707070",
"v  c #717171",
"b  c #727272",
"n  c #737373",
"m  c #747474",
"M  c #757575",
"N  c #767676",
"B  c #777777",
"V  c #787878",
"C  c #797979",
"Z  c #7A7A7A",
"A  c #7B7B7B",
"S  c #7C7C7C",
"D  c #7D7D7D",
"F  c #7E7E7E",
"G  c #7F7F7F",
"H  c #808080",
"J  c #818181",
"K  c #828282",
"L  c #838383",
"P  c #848484",
"I  c #858585",
"U  c #868686",
"Y  c #878787",
"T  c #888888",
"R  c #898989",
"E  c gray54",
"W  c #8B8B8B",
"Q  c #8C8C8C",
"!  c #8D8D8D",
"~  c #8E8E8E",
"^  c #8F8F8F",
"/  c #909090",
"(  c #919191",
")  c #929292",
"_  c #939393",
"`  c #949494",
"'  c #959595",
"]  c #969696",
"[  c #979797",
"{  c #989898",
"}  c #999999",
"|  c #9A9A9A",
" . c #9B9B9B",
".. c #9C9C9C",
"X. c #9D9D9D",
"o. c #9E9E9E",
"O. c #9F9F9F",
"+. c #A0A0A0",
"@. c #A1A1A1",
"#. c #A2A2A2",
"$. c #A3A3A3",
"%. c #A4A4A4",
"&. c #A5A5A5",
"*. c #A6A6A6",
"=. c #A7A7A7",
"-. c #A8A8A8",
";. c #A9A9A9",
":. c #AAAAAA",
">. c #ABABAB",
",. c #ACACAC",
"<. c #ADADAD",
"1. c #AEAEAE",
"2. c #AFAFAF",
"3. c #B0B0B0",
"4. c #B1B1B1",
"5. c #B2B2B2",
"6. c gray70",
"7. c #B4B4B4",
"8. c #B5B5B5",
"9. c #B6B6B6",
"0. c #B7B7B7",
"q. c #B8B8B8",
"w. c #B9B9B9",
"e. c #BABABA",
"r. c #BBBBBB",
"t. c #BCBCBC",
"y. c #BDBDBD",
"u. c #BEBEBE",
"i. c #BFBFBF",
"p. c #C0C0C0",
"a. c #C1C1C1",
"s. c #C2C2C2",
"d. c #C3C3C3",
"f. c #C4C4C4",
"g. c #C5C5C5",
"h. c #C6C6C6",
"j. c #C7C7C7",
"k. c #C8C8C8",
"l. c #C9C9C9",
"z. c #CACACA",
"x. c #CBCBCB",
"c. c #CCCCCC",
"v. c #CDCDCD",
"b. c #CECECE",
"n. c #CFCFCF",
"m. c #D0D0D0",
"M. c #D1D1D1",
"N. c #D2D2D2",
"B. c #D3D3D3",
"V. c #D4D4D4",
"C. c #D5D5D5",
"Z. c #D6D6D6",
"A. c #D7D7D7",
"S. c #D8D8D8",
"D. c #D9D9D9",
"F. c #DADADA",
"G. c #DBDBDB",
"H. c #DCDCDC",
"J. c #DDDDDD",
"K. c #DEDEDE",
"L. c #DFDFDF",
"P. c #E0E0E0",
"I. c #E1E1E1",
"U. c #E2E2E2",
"Y. c #E3E3E3",
"T. c #E4E4E4",
"R. c #E5E5E5",
"E. c #E6E6E6",
"W. c #E7E7E7",
"Q. c #E8E8E8",
"!. c #E9E9E9",
"~. c #EBEBEB",
"^. c #ECECEC",
"/. c #EDEDED",
"(. c #EEEEEE",
"). c #EFEFEF",
"_. c #F0F0F0",
"`. c #F1F1F1",
"'. c #F3F3F3",
"]. c #F7F7F7",
/* pixels */
"6.1.0.u.a.u.u.1.:.u.a.e.e.Z.I.D.Z.l.f.l.u.e.u.1.$.{ X.{ ( X.$.v.E.u.a.0.' ( &.u.u.6.1.&.0.N.f.a.a.1.$.E Z H Z m ' X.I ( &.$.$.6.",
"a.{ X.X.{ X.' E ( :.1.6.6.J.N.:.$.X.( ! ! I H G v z v z v Z E f.I.X.' I m G I { ' ! ' ( { v.f.$.$.( m r p p r u G m u v G H ! 1.",
"l.! ! E H m m G E { &.&.:.D.Z.e.6.&.{ ( I G Z Z m v m m m G ( a.I.{ ! G v Z H ( { ' { X.X.v.v.$.{ { I h Z p h z v G Z H ( X.:.a.",
"N.&.&.$.' ! { 6.u.f.l.f.a.D.Z.N.N.l.e.6.{ ( ( ' { { ' X.&.1.u.N.J.:.X.E I ' $.$.:.1.:.1.1.Z.!.Z.N.v.e.:.6.&.&.X.' X.6.u.l.v.v.J.",
":.$.&.$.' ! :.J.D.a.a.1.$.1.0.u.a.f.u.0.&.u.a.1.6.$.X.$.6.u.f.a.1.:.X.( ( $.:.u.D.a.0.e.u.u.l.l.e.6.1.( X.6.&.I H ! X.e.a.0.1.1.",
"I G H Z v h H N.l.X.( H m Z ! ( ' E H Z Z f.e.H G Z G H E ( { ' ' ' E H I ( ( e.f.X.' ' ' ' ( ! E I H h h &.( 8 p v G I E Z H ( ",
"G E ' ' E E $.I.J.1.{ E I H E { ' I G m G f.6.m m Z H I E ( ' ! E I E H H ! ( u.6.( ( ( E ! ! E H G G Z z X.X.Z Z E E I E H G I ",
"{ X.0.u.e.f.l.(.'.I.Z.a.e.u.a.Z.v.l.u.u.f.J.f.&.:.:.1.&.$.&.&.X.{ &.{ ' $.1.6.l.l.u.6.1.&.{ ' ' ! ( ( ' ' 1.:.$.{ &.$.X.{ ( { :.",
"X.1.f.v.v.v.v.N.Z.J.Z.a.u.a.N.Z.'.l.6.0.e.0.:.6.1.&.6.1.&.:.' G m m m Z H E ( ( ( { { $.&.:.6.u.u.0.0.u.e.&.:.e.u.e.1.$.{ 6.N.0.",
"u G { &.0.0.0.0.0.6.1.{ ( $.$.1.D.$.I I E E ! ! E ! ( ! I E m z h h h z v Z I H G Z z z v v G E 1.! E E E I ! { ' ! I Z v $.D.E ",
"r v ( &.6.6.6.6.6.6.1.&.{ X.( X.v.:.( ! ' ( ! I G H H I Z m v h h h z z z m H G m v h p p z m ! 0.! E I E ' { X.( I H H Z $.N.G ",
"E ' &.e.a.v.l.e.1.1.6.1.1.&.{ { N.N.e.0.1.$.' ! H I I I I E I G Z G H Z z ! &.X.{ ( ! I ! ( ' &.u.$.{ { ' ' { ' ' { { { { 6.l.( ",
"! :.6.1.e.f.e.:.$.{ X.$.:.X.{ :.u.a.u.e.6.0.:.u.e.{ X.{ ' ( ! I E E ! ! ' 6.u.6.1.&.:.1.:.&.X.$.X.$.X.' ' X.&.:.0.f.0.{ X.X.( E ",
"( :.0.1.X.{ X.m m v v Z H I H E ! ( ' ! ! ! E 0.u.h h h u 8 r 4 r u p u p X.0.' ' ! E ! ! ( E I I I I G m Z I X.$.H G v v H H I ",
"{ 1.:.:.{ X.$.z 8 4 p u h H E ! ( ( ! I E E I 1.0.u r r r u z p z v z z v $.e.' ' ! I H G Z m m m Z H E Z z z E ' p u z z H E ( ",
"0.:.:.:.&.:.$.E m m H E { 1.0.:.0.e.0.6.6.0.6.a.6.I m m H H E E I G H I ! 1.f.0.e.1.6.:.' X.{ &.&.1.1.6.6.:.&.{ X.I E { ' X.X.:.",
"N.' E I G m h m z z Z H I 6.E.a.v.v.f.e.6.0.:.X.' ' ! E ( ! ' :.:.m Z H ! ( ' 1.:.! ( ! E X.6.$.$.$.X.{ ! { X.I G G E ( E E E $.",
"a.H z h u r > < > > < 4 < { E.6.:.$.( I Z Z H m p r r 8 8 u z I 0.h h v Z G G H m h p r 8 G ' Z G m z z z h h u 4 > < r p z v I ",
"e.Z h p h h 8 8 8 < 4 r 4 ! Z.e.&.X.' I H H I H z r r 8 < 8 u Z :.z h Z G Z Z m z u r 8 < v Z z Z m p u p h u 4 8 > > 4 p z z G ",
"l.$.E G I ( G p p z G E I :.f.l.e.1.6.:.&.$.X.( H v z z h z v ! :.( E ( X.$.' I m m H m v E G Z m v z m v h h u z v z I ( $.$.1.",
"e.1.{ E ( &.( $.X.H { $.' X.6.N.u.6.u.0.0.l.u.X.' E H G I E ( &.&.$.1.1.e.a.u.a.&.( ' E E I H ! ! ( ' ( G &.&.' ( ! ( &.&.&.6.6.",
"u p 4 < 4 u u ( { v Z G r r H &.' { X.' ' 0.{ z p u 8 < > & > r u r u h m m z $.X.r 4 < < > < r 8 h v p z :.G & & < 4 h v u r h ",
"& & > & > 4 4 H ( Z v p 4 r G ( E H I E G ' E h u 4 > & # # & < 4 8 r p m m v X.{ r < > < > 4 u u u 8 r m 0.m > > 8 4 p H Z v G ",
"m G H H H G m E :.:.{ G z z G E ( ( ! ( ' 1.6.X.{ ! H G Z v v m z v ( { $.&.{ &.{ v h u u u z I E ! E I ( :.I v m I G G ' &.$.:.",
"&.6.$.' E G z v G ! I h 8 u Z ! 0.N.l.u.l.Z.Z.N.e.:.$.{ { { e.X.H E &.0.e.a.0.&.' E G G G H I { 1.e.{ ( ( H H G Z E I I :.u.a.v.",
"E ! G p 8 < > < < 8 < @ .   & 8 { 0.I I ( { X.' H z h p p z $.H h h G ' { { ! H m m m v z z m E 1.0.Z z 8 < 8 4 < r 8 4 m E e.0.",
"X.' I m u > > < 4 u r # + . + > ! :.H E ( ' { ( H z u p h v $.H z m G ! ' ( H Z v m z z z z m I $.&.m m v p h h m Z u > z H e.u.",
"u.u.6.$.! m m G Z G G u > 8 r 4 E 1.X.:.0.0.:.6.&.X.! ( ' ' :.1.&.$.&.&.X.' H Z m z m m h v G ' :.1.I I X.X.' ' ( ( H m { 1.a.a.",
"a.a.a.e.:.X.:.$.&.:.&.I h v I G I X.$.&.u.u.0.u.N.0.' ' ( ( ! ( ( ! :.$.{ ' e.&.' ! E H m H { u.u.1.{ ' &.X.' ! u.D.e.&.6.6.&.&.",
"X.:.:.$.' H { ( ( ( ! I v v Z Z m G Z I X.{ X.&.u.' u 8 8 < > 4 u h v m v H N.1.H Z h p h z Z ' X.$.' X.$.! I ! v.N.&.! E m m H ",
"&.:.1.X.! G E H G G H I E I ( ( I E I I ( ( X.X.0.X.h u r 4 4 8 p z z m G ( I.a.' H v z m Z ! :.$.&.X.&.X.' ' { l.e.$.&.:.{ { { ",
":.6.0.&.{ { &.' E E E $.:.$.:.&.' { 1.0.0.u.l.f.f.e.X.{ ' ( ( { $.1.0.6.u.Z.'.D.f.0.&.$.$.:.u.f.f.v.l.a.u.e.e.e.Z.Z.N.N.N.u.0.6.",
"Z.Z.0.1.:.:.&.&.:.6.6.e.u.u.D.N.e.0.u.e.u.u.a.0.1.( { { ' ! ! ( 6.Z.6.&.1.e.0.6.e.e.1.$.&.u.(.!.v.l.u.e.6.6.0.1.6.u.a.a.0.6.6.6.",
"0.6.m Z H v r 4 8 h u h z v e.0.{ ( ' ( X.( ' { $.' E z h u r p &.e.v z z m G I I H I Z G $.E.a.( I Z m G E ! ( ! ! I ( H m m m ",
"$.$.z v Z h & & > < > < > 8 6.:.{ X.{ ' X.X.' $.1.0.&.G z h u r &.u.z v p h v Z z h z z v ! D.0.G v h u v H ! ( I H I I G m v z ",
"$.6.E ( X.H z v h r h h p p :.e.u.v.u.e.u.l.a.l.D.I.D.l.e.X.' X.l.u.E I H Z ! ' G Z m m E ( a.6.( ' H m I { &.0.&.X.&.X.I G m m ",
"' { ' 1.6.X.E ! :.6.E E H H ' $.6.l.f.u.0.l.J.l.u.v.l.f.6.( Z I { E H G G m ( ' &.$.G H ( E ( ' { &.{ ( X.1.f.D.v.f.l.u.' G H ' ",
"h z v G H v p r ( u.h z h z G E ( X.X.$.{ &.Z.e.{ 6.1.:.! m r < < < r u r 8 p z :.$.4 8 8 4 4 8 r p h u h m 0.u.$.:.1.$.Z u z Z ",
"p h h Z G m m h ( e.m m m G E $.{ ' { ' ! ' N.e.' 1.1.:.! v z 8 > 4 r 8 r h p h :.&.r r r r u u p p h p h v 0.a.$.1.6.:.E Z m h ",
"&.$.X.1.a.l.f.a.N.Z.e.e.a.a.0.0.a.l.f.6.6.0.N.l.e.f.u.a.u.6.X.I v Z Z H ! ' { { 6.X.Z v Z m m G H G E E ! ' u.D.l.Z.Z.Z.u.:.X.{ ",
"Z Z Z G &.1.{ X.&.6.6.e.l.a.e.f.D.v.u.6.&.( E ' &.1.:.1.u.v.u.{ E H I I ' { X.! H H Z m m Z Z X.1.( ' { ' $.$.1.u.f.l.l.&.X.! m ",
"+ . . < p p 8 h z G m G E H E u.u.{ ( ( H G G ! X.$.&.1.1.l.l.! Z v m m Z m G z v z z m v m m 1.1.m m z h h v G H H I I v E Z < ",
"8 < 4 r u u h v z z z Z G Z E l.f.' ! E G G I ' &.6.1.e.u.D.J.&.! I H H H G G G G m Z m v m m 1.:.m z p u p z m I G H G H :.' m ",
"H G H G m G I m z p z ( { ( X.v.Z.&.X.:.:.:.6.u.e.f.N.N.Z.!.(.N.e.:.6.1.&.$.X.&.:.&.{ ! ! X.:.a.:.E H G Z m Z I ( $.$.X.&.e.&.( ",
"0.X.( ( { a.$.G m p m &.e.:.1.1.:.&.$.:.1.0.u.I.E.Z.N.Z.N.f.e.e.1.6.:.X.{ 0.J.Z.Z.l.f.e.e.f.v.N.a.0.6.:.{ $.1.f.J.Z.v.Z.D.N.l.u.",
"I m z p Z a.H > < > u I H H ! ( ! E m z z G ( v.l.$.:.1.1.:.$.&.$.X.! I G X.v.1.&.{ ' ' ( ( ( I E I Z v h h Z :.v.&.:.:.X.( ! I ",
"H G m r u $.m > < 8 h Z Z I ! ' ( Z r 8 r v ! v.D.:.{ :.:.&.&.:.$.( E I I &.f.X.X.{ ( ! ! E H H I H Z z z v G :.a.X.&.&.{ I H Z ",
":.X.( G m $.Z < 4 v I v H &.6.f.e.' G H E { 1.J.(.l.u.l.N.N.v.f.1.{ ' { X.e.Z.f.l.l.u.0.6.:.$.&.:.X.$.' ! ! ( $.a.u.a.e.&.! ' { ",
"a.G z p r Z v u u m I G ! N.(.I.J.6.$.1.:.1.l.D.J.D.D.J.N.v.a.N.N.$.{ X.X.X.6.e.a.f.e.1.$.0.l.6.0.:.&.' G m Z H &.a.l.0.' ( $.0.",
"X.& @ . + u r < < u G I ' N.E.u.:.G h p h m E { &.0.1.{ I I Z { f.H G G m H ( ( ' $.E h r ! &.Z E ! G Z p 8 h Z ! $.:.{ Z m H E ",
"( @ + + > z r 4 8 z G ! ' v.J.a.0.' G m Z G E ' $.$.( I Z Z v ' f.! ' ! H H ' ' { &.E p 4 ( X.z I ! I E I G I E I I H h p Z z p ",
"$.p u z v p 4 m ' $.X.1.0.D.D.v.Z.f.1.:.( ' $.6.e.0.1.&.&.:.X.0.J.v.Z.N.v.a.l.v.l.N.0.' ! 1.X.H &.:.&.$.&.6.6.{ m z h r u Z h u ",
"v v G E H h v ' 6.a.a.e.a.a.v.l.f.a.1.:.{ ' X.:.u.1.6.:.:.6.$.:.e.u.u.u.l.v.u.u.e.a.Z.{ H G H E $.1.6.1.6.e.1.0.e.I G v m Z v h ",
"8 4 < > & & p m H { 1.Z v E X.:.1.6.&.{ ( ( E E $.H H H Z m Z I ! ( E ! X.$.! H G E l.I r u z I E ! ( ! ! E I 6.f.I E h u u r u ",
"H p < 4 r 4 p m z Z &.G z v I { $.1.1.$.( ( E ! 0.! ( E H E I H E ( X.X.{ X.{ ' ( X.N.E G G H ! ( ( ' ' { $.:.u.1.Z H z z z z E ",
"! Z v h r p H E G G X.E G ! { 6.e.l.v.6.1.&.X.1.J.Z.D.v.l.N.N.v.v.f.l.N.l.v.N.Z.v.l.I.a.f.v.Z.v.Z.v.l.l.N.Z.D.N.6.v E H v H ! ( ",
"v.:.:.$.( ' &.$.E G H H I ' $.:.a.D.D.:.X.' ' X.1.e.u.u.e.u.v.D.!.D.N.v.a.v.D.N.v.a.a.u.f.v.N.Z.D.E.'.l.l.l.l.6.' v p u z ! ( :.",
"Z.( I I H E H Z v h p r r p v G ( 0.l.{ ( ( ( { $.$.' ( ! E ! :.N.&.:.&.&.:.:.{ { ' ' X.$.X.X.:.0.v.'.e.&.X.X.' H v < > p m v E ",
"N.H m G H E H Z z h p p h p v H ! 1.Z.{ { { $.{ ! ! E E ! I E &.Z.{ { X.&.:.6.:.{ ( ( { &.$.{ $.6.v.'.e.:.&.( I H m m G I H H ( ",
"v.E E ( ( ' $.{ E ' { ' ! ! { &.:.0.N.1.6.0.6.$.$.X.&.&.&.{ ( 1.N.1.&.X.0.e.e.e.1.e.0.0.6.e.6.0.f.Z.].J.D.N.0.X.X.$.X.&.6.1.:.0.",
"u.&.X.6.0.f.v.f.v.J.f.e.1.1.0.u.0.&.&.&.&.1.1.:.X.X.0.v.:.$.X.X.:.1.1.0.v.Z.v.l.v.E.N.l.f.f.u.a.v.Z.Z.Z.N.u.{ ( ( &.0.D.l.l.a.a.",
"I G H ( $.6.6.6.N.!.0.$.' { { E I H I I Z Z v z h p E u.m h p p h Z Z I ' &.$.' e.!.6.&.&.:.:.&.&.$.{ 6.&.E I I Z H { Z.{ I m I ",
"G H ( :.:.1.1.6.N.E.6.$.{ ( ( I I E H m v m z p h h E e.z 8 u z m I I E H E { ' 6.I.&.1.:.&.&.$.:.X.! ( H I I Z v m E u.! G z z ",
"m E :.u.e.u.u.f.Z.D.0.:.X.X.X.X.$.$.&.{ ' E ! G E ! { :.G z G ( ' &.$.( I ! :.6.u.!.l.f.l.a.u.u.a.:.&.X.! ( Z Z I ( X.6.! I I H "
};
