/* XPM */
static char *color_wall[] = {
/* columns rows colors chars-per-pixel */
"64 64 72 1 ",
"  c #050708",
". c #07080A",
"X c #0B0C0D",
"o c #0E0F10",
"O c #0F1011",
"+ c #121313",
"@ c #171718",
"# c #171818",
"$ c #1B1B1A",
"% c #201F1D",
"& c #21201F",
"* c #242322",
"= c #282725",
"- c #2A2927",
"; c #2C2B29",
": c #302E2C",
"> c #32312F",
", c #3C352F",
"< c #353432",
"1 c #3D3631",
"2 c #3E3833",
"3 c #3D3B38",
"4 c #413B35",
"5 c #453E39",
"6 c #46403B",
"7 c #4B433D",
"8 c #4F4740",
"9 c #4F4A45",
"0 c #504740",
"q c #524943",
"w c #594E45",
"e c #534F4A",
"r c #5C524A",
"t c #605247",
"y c #63564C",
"u c #66594E",
"i c #6A5B4F",
"p c #675A50",
"a c #695D53",
"s c #6D6057",
"d c #6D635B",
"f c #726357",
"g c #71645A",
"h c #72685F",
"j c #7B6B5E",
"k c #7C6E62",
"l c #7F7064",
"z c #836F5D",
"x c #84705F",
"c c #857364",
"v c #8B7665",
"b c #8F7966",
"n c #897769",
"m c #8B7A6C",
"M c #907966",
"N c #937E6C",
"B c #8D7E71",
"V c #96806F",
"C c #99826F",
"Z c #8E8074",
"A c #978271",
"S c #9A8575",
"D c #9D8877",
"F c #968678",
"G c #9B8778",
"H c #9D897A",
"J c #A08975",
"K c #A08D7E",
"L c #9F8E80",
"P c #A08E80",
"I c #A29183",
"U c #A69789",
/* pixels */
"HGSASGFSSmp+##OXXoXoXuGGSHHSNHSx1<-**:$oXX1NJNPNNNIHN6OXoXXXXoXo",
"HHSSSGSSGNpX++OXooOXXuGGJHGHSNSm<;++#&@oX.4BNPNNPNNPB4O+O++$$+XX",
"GFASGGSGGSyoOXXXXOOOXpKPHSGHSNSn=oOooXoo+X5NNPNPNNPPN4XO@#*:*+XX",
"SNNASSNSGSi#O.XXXXo+#aKGHGSSSNSm%XooXXXoX+7NPNPNPNPNn4.o#+$=%+oX",
"SGSNNSSSGAy@+++XXXXXOpNSHSSSSNNm#X ooOOoX+6PGGNGHHPNN6.X+XXOoXXo",
"GSGAmSASSSp++$#OXOOOXySSGGSSSSSn%XXoOOooXX4NJGPNNNNHH5XXoXXXOOXX",
"GSSSSSSSGSp$$$+XoOOXXyGSGGGGNSSn#XXXooX XX5NGGJGHNHHH5XXXXXX$*#X",
"HGSNNASSGJa+@+OoOoOoOaGGGGSSGSSc#XXXXoXXXX4JPBGNNHNPN5XXX..O+O@$",
"HSNSANNSGKa++@@&+ooo+gGGGGAAAGSc%oXXXXXoX 4GGGNGNNPNN4XXXXo@#o+#",
"GSSSJSGKKKa+++o+o   XpJGGGJGSSNc$X XXX.oX 4GSGPNNPNNN4XO%+o$#oXX",
"yyuuuuaaaay5544242222raaaapaiiiy54144324449pyappgauagq7wp9467544",
"OoooXoXXXo4SNNSGGGGSS5OooOoOO+o%mGNNNSGGNGpoXXXXo+OO#aNNBNBNNNNv",
"O+OOXXXXXX4NGSGGHKHSA5ooooXoo+o%nNGSGGHHPPa@+XXo+@++*fNNNNNNbbbb",
"++OX.XXoX.4ASSGHHHHGS4@#OooooOo%nPNNNHHGGKaOoXoO##+#=fNPNNNNNbbN",
"oXoXXXOOoX,NGSGGHHGSS4X+ooOo+@#=nGNNHGSGGPsOXXXO@+*=>fNNNNPNNNPJ",
"XXXX.XOOO+4mSHGHHGSNM4XoXoOXo+@&cNHHLGSSPPa+OXXO$$-%%fPKPNNNIPPB",
"XX X  oo.+,vVASSHGASN5+++X+X+XX%MPNINPNKPPs#oXXX#$OXoaNNHNNPNNHB",
"XXoooXoo$*5NSAAASSGHS6+XX@+O+X.$bNPNNNPPPHs+oXXoOOXOOaPNNHNNPHPH",
"$#+oXoo$;&5SGSGGGHSSS5.X+@+@$@@$mNPNPNNPNNg#%+ooO#@XXaINNNNHPNNN",
"->1>*#$+X.4HGDHHDHGSA4++X.X+$++$mPNPNPKNNNs++XXooXXXXaPNNPPHHNvN",
"=5qe<#oX.X4SSSGGSHGSN4+$X+XX+Oo$mNNNBNPBNNsOoXXoXXXXXuNNNNNBHNNN",
"kkkckuyuuiw422244221,raayipaddda54454444q8qpiiippaiia0,454544444",
"SGSSJNNGJJa+XX.XOXX.XaHGSGHHPKIB$XXXX..X$$5NPKNKNJJKN5XXo.XXXXXX",
"SGSSSNNGSCs@+@X@@@$$*aACVSSSASSn$XXXX.XX@X5NNNHNKNNKN5o+OXXXO=*X",
"SGGSASCGDIh$@XX..X$$=sSNASSAAAAn$XXXOXX$$X4NNHNHPNNHN4XOXXO*-6;O",
"NNSGSANDJIk$@@+++@$&*gAHSVSHSNMn$XX@:%X@$O4NNNHNNHNNN4OOO+#$-6&O",
"AAGSHHHHHIdoXX+$$;*@OpGHGAAHSANm$@*>6%XX@O4NKHHKHNHHG5OO#&&>33$O",
"SGJGGHLKLLaoX+@$;$@@+sIHSSSSGHHB*$$<3@OXXX4NNKHNNKNGN7+OO+$:=&++",
"SJCSSSGSGHa@+@*==$++XsPHSSGHLHHB:*<3>+OO%$4cNGKNKNHHH3OOO+@%++++",
"CSSACSSGHHs$++$$$#+.XpSSASGHHHSn&%>=$OO+%+,zGGNKNKKNN4OOO++%+++#",
"SGSASASSGHa+Xo++++X XaHHSHHHSNSn&$$O@O+$@X4NGGNNGGNKF3XoOOO+OXO+",
"bnvnvnbnnnu%$%$%*&$$$aBmBmmnmncj:=:&&=*=$$5nnNnmBmBNm6$$$%**$%$$",
"*%*%$%%%&$5cmNmNmvmBB4$$%%%%%=%-cmmmmBBBNBp*==*=&%;-%yvnmnNncnmm",
"+oooXXXOoX4HGNPIHPPUP5XoOXXOXOX%BHHHNGHNPNy+@%+++@@XXiNPPNNNNNNK",
"@oOXXXXOXO5NNHNNNPPNH5o@#++O@@O$mPGNHNHHNPy+@@oX+@%++iPNHHNHHNPP",
"ooXXXXOOO@5NPNNPPNPBN4Xo+OXXO+O$mHHFNHHNPNu+++oXXo@%$iPKPNNNHHKN",
"XXoO+XO+OX4NPPNNNPNNN7+OOXXOOXX$BKNBHPHNPPi+OO+OXXooXuNIPHNNNNNN",
"XOO+OXXXXX3HNNPNPNNNN5@XXo+#@X.$mHNNNNHNNPioXXXXXXXX@aKIHHHKHNNH",
"o@##$XXXOX5NNPNNNNPNN4OX++X+OO+%mNKHNNNHPNuXXXXOXXX@+iKPHHNNNNHH",
"XXXo@OX+OO5NPNbNNPNNN4.X+O+++$$%mKNHHNHNNNuXXXXX+XXXXiNNHNNHKHNH",
"XXXXXXXo+o4NNbNNPNNNN4XXXO+$$$O$mGHNNNPPNNf+XXXXo...oiNNNHHNKNHG",
"XXXXX.XX..4BNNKNNPNNP4.XOXOO@OX%bKKGNNNNIPsooXXX... .iMNbNNNNGNK",
"44554441440uaypufuyyi0444445456qygguupupasr4545544444qtuuuuuyysa",
"NNNPLNPNIUdXoX.XOooXoaNNNMMNNNNm$$%+XXoO+o6NPNNNNMNNN4.O+OOoXoXO",
"KPPNBNPIIUsX....XXoXXaNNNbNNNNNc$@@XXX++Oo5KNNNNNNJGN4O@+XXXXOX+",
"NNNNNPNPPPaXX.XXXXoOoaNPHNNNMNNz$@$oXXXO+o6NKNNNJJGLN4O+XX..X++@",
"NPNKKNNPNPpX.XXXXooO+sPPPNNNNNMc$+$@XXOXX.5NNKNNNGBNN5XXXX.XX+X+",
"PNNNNPNNNNpXXXoOoo+@$gNJINNNNNNn%+$@XX+oX.4NKNKNbNNJN4XX.XXXXXXX",
"NNINNHPPNNuXXXXOO++$$aNNNNNNNNPm%O$#@@*=@X4PNPNNNPNNN7OXXXXXXOoO",
"PNNINPNNNNpXXOXXXO+$@sPNNPNNHPPm=$$%@Xo$=%5NNNNPJNNPN5ooXoOO+OoO",
"PIUNNNHBPPfXXXXXXO+&&gNNPPPPPNBn:=#%+XXX@*8NPJNNJNNKN5OOO+@+OoOO",
"PIINPNPPPPaX.XXXOO+##aNHNNNNNPNv3=$O@+OOOo7NJNPNNNKNN4XOo+@@Oo++",
"NNNNHGGGNNpXXXXXOOOXXuNBNNNNNPNm5&$#@=*+OO6NNNNNKNNNN5O+oo++++Oo",
"47444444447puaaisauup74445505545aauagzgaasu6455550445tiiiuyssaau",
"%*@@@OX.X.4NNPKNNHNNN4....O=*$@*mNNNNINKHPaoXXoO@++oouNKNNNPPPNP",
";,&->@XXXX5PNNNPHNPNN4XXO+#%++O%nNNNNNKPNNaOOOXoO+++OaNNMxNHNNPN",
";-=;:@XXXX4NPNGHHHNKN4XO+%%+oXX%nbNNPNPNNJf%@#$#+o+$+aKNNzNHNHHN",
"-O@#%+OXXX4PHGHHNHPNN4X$@o.XXX.@cMNPNNNPKIf**@#OXo+@+sHHNNNHHNHK",
"+OOoXXOOoO4NHHNPHHNPN5@%o.XXX.X@nNPNNNbNKNu+*#oXXo+O+aHNNNNNNHHN",
".oXXXXXO++0GHPNHHHPNH7OXX...X.X#BIPNbMMNNNp+$oXXo++++aKKHHHHKNHK",
"oooOOOXX@@5NHHNPNHNHN4.XXXXXXXX#NINNMNNPNKi+%+XXo++O+aGNNNGGHHNK",
"X.O+OXXXOX4HPHNHPPNPJ4XX.XXXXoX%MNNINNNNNKiO##oXXXXX+pNNHBGGHHHN",
"XoOOXXXXoX4NHPPHPNNJJ6+oXXX+ooo$nNNNNPPNNPaO#$OXooXXOuNGGGHHKHHG",
"XX.XOXXXXX4HNNHNNNGBJ5oXXXo+o++*bNPNNNNPNNuO@$@+#*@XOpDNGGHHHKHN"
};
