/* XPM */
static char *metal_wall[] = {
/* columns rows colors chars-per-pixel */
"64 64 23 1 ",
"  c #2A2831",
". c #2B2931",
"X c #2B2932",
"o c #2B2A32",
"O c #2C2A32",
"+ c #2C2A33",
"@ c #2C2B33",
"# c #2D2B33",
"$ c #2D2B34",
"% c #2D2C34",
"& c #2E2C34",
"* c #2E2D34",
"= c #2E2C35",
"- c #2E2D35",
"; c #2F2D35",
": c #2F2E35",
"> c #2F2E36",
", c #302E36",
"< c #302F36",
"1 c #312F36",
"2 c #302F37",
"3 c #312F37",
"4 c #313037",
/* pixels */
"$%%%,,,,%%%%%%%,3,%,%%,%,,,4%4,,%,,%%,,%%%,,%,4,%#%%%%%4,%4%%,%%",
"#%$#%%%%,%%%,%,%%%%,%%%%%%%,4,,,,%%%,,,,%%,%%%%4%%%%,%,%%,%,%%%%",
"####%,,%%,$%%%,%$%,%%%%%%,,%,,,,,%%%%%%%%4,,4,%%,%%$%%%%%%%%%%%%",
"% ##%,,%4%%$%%%%%%%%,,%%,3,%%%,,,,4%%,%%%,%%,%,,%%%##%%%%%%%%$#$",
"%##$%%%,,,%%%%%%%%%%%%%%%%%%%,4444,,%%,%%%,%%,,%%%%%%%%%%%$%%$#$",
"##%,%%%%,%%%%%,%%%%%%%%%,%%,4%%,,4%%%%%%$%%44,%,,,,%%,%%,%%%$$# ",
"#%%%%,%%%,%%#%%%%%%%%,%$%%%,,,,44%%%%%%%##%44%%,,%4%,%,,,%%,%,$$",
"#%%%,%%%%%###%%,,4%,%%$$,,,,,,,,444%%,%,#$%%,%%,,,4%%4,,4%,%%%%%",
",%%$%%%#%%%%%,,%%3%%%%$$%%,3,,%%%%,,4,%%%%%%%%%,,,4%%44%%%%%,%4,",
"%%%%%##%%%%%%4,,,%%%%,%%%%%4%%%$$%,,%,,%%%%%,%%,%,%,,%4%%44%,%%%",
"$%,%#%%,%%%%%,,%,,3%%%3,%%%%,% $$,,%%,,%,%%44,,%4%,%,%%444,4,4%%",
"%%,%%%,,%%,%%%4,%,4%%%%3%%%%%% $$%,44%%%,%%444%%%,,%%%%%%4%%%%%%",
",%%%$%,,%%,%%%44,%43%O%%3%%%$$$$%%%,,%%,,%%444,%%,%,$%#$%%,%%%%%",
"%%#%##%%%%%%,%%%%%%,%$$%%%%%$%%%%%%%,,,%,44%%%%%%%%%%%% %%,,,% $",
"%%$%%%%%,,,,4%%%$  %%%$%%,%%%%%%%,%%%%%%%4%%,%,%,%%$#$4%%%,,%## ",
"%%%%,%,%%,%,,%%%% $%%$%%%%%3%%%%%%%%%,,,%%,,%,%,,%%%##$%%%%%%#%%",
",%%%,4,%%%,%3%%%%%%%%OO$3%%%,%%%%%%#%4%,%%%%%,%,,%%%%%%%%%%4%%%4",
",,,,,4,%%%%%%,%$3%3%%$ $%33%%%$$%%% %%4%,4%%%%4,,%%,%%%%%%%4%%%,",
",,,%,,%,%%%%%%%%%333%%%$%%,%%$$$%%%#%%,4,,4%%%4,,,4,%444%%%%%%%4",
"%,,,,,%%% $%%%333%%,%3%%$%%,%$$$,%#%%4%,%%%%%,%%%%,,,%%%%%%%%%%%",
"%%,%,,%%,%$%,%343,%%3%3%%%%%$O$$%%##%,%%%%%%,,%%%4%,%,,%%%%%,%,%",
"4,%%%,,,%3%%%%,,%333%%3%%%%,$$$$%%# $%%%%,4%%,4%%%4%%%%%%,,,4,4,",
",%%%%,%,%%%%%%%4333%%%%%,%3%$%%%%%# %%%4,,,%,,,%4,%,%%4444%%%,%%",
",%$%%%%,,%%,%,%3,,33%%33%3%%3%%%%,%%%,%,%,%,%,4,4%%%%%%,,44%%%,,",
"%$##%%%,%$$%%%4,%%3%%333%,,%,,%%%,%,%,,%,%4%%44,,%,%%,%%,,,%$44,",
",,%%,%%%#%%,,,,%33333333%%%3%%%%%,4,%%,,%%,%%4,,44%$%%,44%,%%%%,",
",,,,4%,%%%,,,%,%%,%3%%%,%,%,%,3%%,,4%%%%%%%%44,,4,%%%,%%%%4%%4,,",
"%,,4,%%,%%,%%,,%%33%,%333,3%,3%34,%%%%,%4%4,%4,,,%%%%44%4%4,4%%,",
"%,,,,%,%%%%,%,,%3333%3%333%33%%34,4%,%%%4%%,%44,%%%%%,,44,44%%%%",
"%%%,,,,,%,,,,,%,,3%3%,,3333%%%%3,%,,%%%,4%,%%%,4%%,,,%%,,44%4,%%",
",,,,,%,,,%,,,,%%33,3%,,%%,%3%%3%%%,%%,4,,44%,,,%%,,%%%%,4%4,,,4%",
",,,%%,,%,%,,%%4,%,%,3%,3333%3%3%%,%%,%,%%4444%,%,4%%%%%%44%4%%%,",
"34%3,%$$%%%,%%3,,%%33%%333,%%,3,%,%,4,,,,,%,,%,,,%,%%%%,34,,%%%%",
",%34%%$%%%3%%,%3%%,%,33334%,33%%%%%,,,,,44,%%,%%,%%%3%%4,,,,,%%%",
"%%3%%%%%$%%%%,%%%%%33%%3,,%333%%%,444%,,,%,%%%,,,,,,,,%,%334,,,,",
"%3%3,4%%%%%%,33%%,,%3%%%,,,,,%%$%%,,,4%,,%%%,,4,,,%,44,%,%,%%%%,",
"43333%%%,3,%3,,,%%3%,%%3,,%%$%$O%%%,,4%%4,%%%,%,%,4,%,,%%,4%%%,,",
",%,33%%%%3%,3%%%%%%%%3%3%%%$$%$$%%,4%,%,4%%%%,%%%%%%%,,%,,,,,%%%",
"%33%%%$%%%,%3%%,%%%%%%%%%,3%O$OO,,%,,%,,,%%$#%%%%%,,4,,,,,3%,%,%",
",34%%%%%%,,%%%%%3%4%%%$%,%$$O$  %%,,44%%,%%%%%,%%4,44,4,3,%%%%%%",
"3%33%%%3,3%%,%%,%%%%%%%,%%$$$$OO#%%%,%%,%%%%%,%%,444%%,,,,,%%%$%",
"4%%34343%,433%,%333%%%%%$$$$$$OO%$%,,%,%%,%3%,,,%,,%%$%,,%%%%%%4",
",%443,,,,3,33,%,%3%%$%%%$$O$$$$$%%%%,,,%3%,%%,,,%,%%,$%,%%%%%%%,",
"%%%4,%3,,3%,,,43%,%%$%%,$$$$O O$%%%%%,%,,33%%%%,,%,%%%%%,%%%,%%%",
"%%%,%,44,%%,%%%%%%%,%%,%$$%$OO $%%%%,,,%,,3,%%,%%%%%%%,%%$%%%%$%",
"4%444,%,3%%%,%%%%%,,%%%%$$$$$$OO%,,%%%%,%343%3,%%,%%%%%%$$$$%%$%",
"3,,%4%43,,,%,%%%,,%44,%%$$$$$OOO%%%,%%,,43,%,,,,,,,%%,%%$%%$%%$%",
"%%3%%43344%,4%%%,%,4%%%%$$$$$$$O$%,%,,,,43%%%%%,,%%%,,%$#$$#%%%,",
"%%3%33%333%,%%%%3,,%,$O$$$O$$O$O%%,%,,,,4,,,$$%%%%,%%%%%%%%%%%%%",
"3%%%%3,%%,3%3%,%%%%,,,,%%$$$O$$O%%%%,3%,,%,%$%%%,%,%,%%,%%%%%%#$",
"%3%%3%%%,%3343%,,%$,,,,,3%O$$$$$$$$%,%3,,%4% %%%%,%,4%%%%%,,%  $",
"%%%%%3%3,333,%%3,33,%,,,,%$$$$$$$O$333,%,44%%%%%%%,,%%,,,%,,%#$ ",
"%%%%%,%%%333%%%4,33,,%,,,%,%%OOO$$$%4333%,,%%%%%%%%%%%3,,%,,%%%#",
"$$%%%,3%3%%%3334,,,%%,%3,%%%%$O$%%%,34%34%,,3%,%%%%%%,%,,,%,,,%$",
"$%%%44,%%,3,,,%3,33,%,,%%,,%,%$$$%%3%%,%3%%4%,%,%%%%%,,,,%%%,,%%",
"%%%4,%,%3%%33,33,3,,%%,%%%,%%$O$$%%433%3%,%,,3,%%%%%%%%,,4,,%,3%",
"%%%4,,,%3%%334,%33%%%%%%%%%%%% $%%%3,,,3,%4,%%,%%%%%%%%,,,,%$,,%",
"%%%3,4%3333%3%,3,333,%,%$%%%,%%%%%%,%%%3%%%,%$%%%%%,,%%%,%,%%%3%",
"%%%%%3%,%$%3%,,%3%34%,,3%%%%%$%3%$$%%%3,%,%$$$%%%%%%,,,,,%,%%,,%",
",%%%%%%%%$%%,%3%3%%%,%%%%%%%$$%3%%%%%,%%,,%$ $%%%,,3%%,,%,,,,,%%",
"%%,%$ O$%%%%%%%%%3%%%,%%4%3%$%%%3%%%%%%%%,%%%%%%%%%%%%%%%,33,%%,",
"3%,%%%%%%%%$%%%%%%%,43433,3%%,3,%3333,%,%%%,%%%,3%$$#$%,33%%%%%3",
",%%,%%%%%3%%%%%%%43,%343%3%%%33%3,3%%,3%%,%%%$%%%$  $%,%,,,%,%,,",
"%%%%%%%%%3%%%%%3%334%%%3%%,,,4%%33%%%%%3%%%$%%%%%%%%,%%%,%,3%%,%"
};
