/* XPM */
static char *rough_wall[] = {
/* columns rows colors chars-per-pixel */
"64 64 42 1 ",
"  c #040404",
". c #050505",
"X c #060606",
"o c #070707",
"O c #080808",
"+ c #090909",
"@ c #0A0A0A",
"# c #0B0B0B",
"$ c #0C0C0C",
"% c #0D0D0D",
"& c #0E0E0E",
"* c #0F0F0F",
"= c #101010",
"- c #111111",
"; c #121212",
": c #131313",
"> c #141414",
", c #151515",
"< c #161616",
"1 c #171717",
"2 c #181818",
"3 c #191919",
"4 c #1A1A1A",
"5 c #1B1B1B",
"6 c #1C1C1C",
"7 c #1D1D1D",
"8 c #1E1E1E",
"9 c gray12",
"0 c #202020",
"q c #212121",
"w c #222222",
"e c #232323",
"r c #242424",
"t c #252525",
"y c #262626",
"u c #272727",
"i c #282828",
"p c #292929",
"a c #2A2A2A",
"s c #2B2B2B",
"d c #2C2C2C",
"f c #2D2D2D",
/* pixels */
"64666644604*===*=>===0000006r00r004=>4=**=6006600000064646>>>=>4",
"44466464464*==****>==6600000000066**>=**=>4066006000r046444>44>>",
"46644444466=******===000000000004*@*>=**>=4006066060r64>>4400>>>",
"66664464466*@*@***===0r006066006=**@==*@**460006660rs6=>4>>60>>>",
"64666444466******@*==60066660000=@*@==****400006000rr6>4>>>>6>>0",
"44466644464=*==@*>==>00660060660=@**>>**==>000060600064>>=4>4>>0",
"64446644446==>*@=====00666006606>=**==***@>06000000606>=>44>>44>",
"44446666446=>=>=>====66660666600>>*@*@*@**4606006066004444>>>>46",
"44066666660>4>0r4=**=666666066604**=>=====400000060606rr64>4>>40",
"4666666r00064>44=***=60600060000>*==>==>06600000000000460>>>4>46",
"6066606006r064>4>4>44666664666464>=4>>>>4600r6000006004404>44444",
"4>>>>4444>66664446666>@@****@**=>>=>=>>>=>>>===>>=>=>6>>>4>>>>>4",
">>4>>4>>>466444444446>@@@@*@@@X*>=>=>==>=>>====>===>44=4444>4044",
"4>>>>>>>>466444444446=@@@X*@@@@*>=>>=>=>>>4=====>>4446>>4>>>4664",
"4>>>>4>>>406>44444466=@@@@*@@@*=>>>>>>>>=>4======>4>46>>4>=4>>66",
"4>>>>>>460sr644444466>@XX@*X@@*=4====>4>446>====>=4>>4>=>>>>>>44",
">>>4>>>>>0rr644664466>@@@@*@@@@*>=>===>>>>66=*====>>>4>>>44>=>>4",
"4>>>>>=>4006444444>464@@X**@@@X@====4>>>==4>***==>=>>>>>>>4>46>>",
"644>>=>>64644444444444@@@**@*@@*>==>>>>=4>4>=====44==4>4>>>>4444",
"660644>4>466444>444444*@@@X**@@@>>>44==>4>>>===>=***=>=>4>>>>>44",
"60rr04>4>>66446466446>==@@@*>***4>4>>>=>4>>======****=>>>>>>>>>4",
"466644>>>46=========>60606460060>>>>=*>>=>4644444444466606600066",
">>===>>==>>X@XXX@X@@X6rrr000rrrr=**@***@**>44444466446466446ss64",
">>>>>>4==>>@@@X@@@@**6r0000r0000==>>=**@**=44444446446404>44400>",
">>>>>>>>44>*@@XXX@@@*60r000r00r0>*464*@*=*=44446644444444>>66664",
">>>>>>4==4>@@@X@@X@X*0rrrr000rrr==**4*@*=*>4>>44444>464>464>4444",
">>>>>4>4>4>@XX*=@@@X@4rrr0r00ssr=***==@*==>444>44444444446646644",
">>4>>>>44>>@XX@**X@XX6sr0r000rss>*@*=**@==444444>4>4464444460646",
">>>4>>>>>==@@@@@@XXXX6rrrr0rrssr4==>=***==40>44>4>444444>4>44060",
"4>>>>==>>>=@XXX@@XXXX6r0sr0rrrr0==>>===***464444>4>>44>64>444460",
">>>==>>===>@XX@X@*XX@00000rrrrr0=**=4===**>64444>44444>>>4>44>44",
"4>4>>>>>>>>**@@*=>@@*600000r0rrr>===>>>===>44464444446444>4446>4",
"====******4664466060r6=>>=>==>=>>=>>>>>>>>4==>>4>>>>=>>4>>>444>>",
"=***@@**@*>64666660664*=4******=>=>>>>====>****==>=**>>===>>=>=>",
">>*@**@@@@>44466666664=404*****=>===>=>===>***@*===*=>===>>>>>4>",
"=>*@******464400666064>>6>**==*=====>=>====@@**@**=>=>>>=>>>>4>>",
"=**==****@>06000660r64>>==*****=>==>===>==>*@*=*@@*@=>>>>>>>>>=>",
"*=*==@@*@@>000066660644=**@***@===>>>=====>*@@*@@*@@*>>>>=>=>4==",
"******@*@*>066r0066664=***@***==>===>>=====@*@***@***====>>>>>==",
"@@*@@***@@4060s0006664******=========>>===>*@*@@*@@@*>====>>====",
"***@*@*@**>00s06660004==*=======>=====>===>***@***@*=>>==>==>>==",
"@***@@*@@*>66r60006064=>4=**>>=4>===>==>>>=****@@@***>4>>>>>===>",
">=>>>>>=>>444446666644>46064660r4>>6>>>>4>4=>>>>=>>>>44>44444>4>",
">>>>>>4>464**@@@=*@@*46660s04666>=>>*****=>4>>44444>4>>4>>>>>4>>",
">>=>4>=4444@@@@@**@@@4460r0r6600===**@@@@*4>>464>>>>>4>>>>>>=>>>",
">>>>>=>>>4>@@@@@*@@@*60rr6600600>=>>@**@@*>>>4>4444>>4>>>>>>>4>4",
">>>>>=>>>==@@**@@@@@*0rr06600rs0==60**@***444>>>6>>>>4>>>===>>>>",
">4>>>>>>=>>*@@@**@@**60r66600006==r0=*==*=44>>>464>4>44>>>>=>>>>",
"444>4>=>44>**@@******40000r00066>*6644>>=*>>4>>444>>44>>>>>>>>>>",
">>>>>>>>>4>@***@@@***4006600000r>>00>>==>=44>>4>>>4>>>>>>>>>>>>4",
"444>>>=>444@@@@@@@*=*4606666000r4>40>=*>4>>>>>4>>>>>>4>>>>>>>=>4",
">4>>>>>>44>*@@@@@**@*400060066604>==>>=>4=>4>>>>>>>>>4>>444>>>>>",
"4>>44=44>>>**@@*==***6r0000666000>===>4===4>>>>44>>>44>>>>>4>>>>",
"64>4440r64006466066666====>>>>=>00rr60060004>466444440000000000r",
"664>40666>60006000r00=XX@X@*@XX@rrsr0000000>>444>>>>>0000000rr0r",
"666604>>6460060000600>@XXX@@XX @rrrrr060000>>>>>>66>>00rrdr00000",
"r0606>>>64r0660006000>XX@@*XXXX*0sr00r0000064444>4>>4000rdr00000",
"r>4664>64660600006660> @*XX@XXX@0ss00rr00004>406>>4440000rr0rr00",
"4>4644604400000000006>@*XXX@XXX*6sr0rrs00004464>>>>>>00r00rr0r0r",
">>>44>>4>4066606060004XX  XX@XX*0ssrrrsr000>4>=>>=>>>00r0r0000r0",
"4>>4>>>>446000060600r>X XXXXX@@=000sr0r0000444>>>=>>>0000r0000rr",
"4>4044444>600000666604@XX@XXXXX=0r0rr00rr00>4r6>>>>>4rr000000rrr",
"6>444>4>>>660066606606>@XXX*@XX*00000600000>6d0>>44>4rr0000r000r",
"64>>4>4>44000060000004*@XX@@X@@*0r00000000046dr666444rr00r00r000"
};
